<svg width="283" height="459" viewBox="0 0 283 459" fill="none" xmlns="http://www.w3.org/2000/svg">
  <path d="M68.1796 0.729006L96.9887 19.0694C97.3939 19.3478 97.7274 19.7321 97.9583 20.1866C98.1892 20.6411 98.3099 21.1511 98.3094 21.6694C98.3335 36.063 98.4877 135.258 98.5263 159.755C98.5275 160.233 98.6318 160.704 98.8311 161.13C99.0303 161.556 99.3189 161.927 99.6739 162.212C100.029 162.497 100.441 162.689 100.877 162.773C101.312 162.856 101.76 162.829 102.185 162.693C163.751 143.49 234.07 173.041 265.52 232.165C283.961 266.829 286.998 312.058 275.006 350.205C273.83 353.949 272.861 361.094 270.224 363.944C264.883 372.832 259.022 381.342 252.675 389.424C252.675 389.424 241.521 403.641 231.071 413.474C212.476 430.982 161.567 451.725 111.507 432.381C101.481 428.476 27.9277 352.327 16.9719 340.934C16.567 340.512 16.2866 339.971 16.1657 339.378C16.0448 338.785 16.0888 338.167 16.2923 337.601L34.4829 287.202C34.6497 286.743 34.9162 286.334 35.2601 286.009C35.604 285.684 36.0152 285.453 36.4591 285.335L80.8658 273.485C81.2855 273.372 81.7236 273.363 82.1467 273.46C82.5699 273.557 82.967 273.757 83.308 274.044C83.6489 274.331 83.9248 274.698 84.1147 275.118C84.3045 275.537 84.4034 275.997 84.4037 276.464L84.4278 290.156V290.457C84.7073 293.416 89.6093 337.777 131.404 345.848C174.639 354.168 191.938 334.054 200.575 315.339C208.538 298.091 172.619 245.405 166.97 237.267C166.736 236.931 166.441 236.651 166.103 236.443C165.765 236.236 165.391 236.105 165.004 236.06L54.5534 222.904C53.8171 222.817 53.1411 222.425 52.6687 221.809C52.1963 221.194 51.9647 220.404 52.0229 219.607L68.1796 0.729006Z" fill="url(#paint0_linear_3084_32866)" />
  <path d="M103.119 402.374C80.9466 385.038 66.3468 351.238 71.1235 321.384C75.553 293.726 97.0165 270.18 122.64 264.47C124.572 264.036 126.526 263.72 128.491 263.524L128.896 263.482C136.969 262.791 145.088 263.883 152.755 266.693C160.423 269.504 167.479 273.972 173.491 279.826C185.112 291.266 192.978 306.289 196.665 322.788C196.699 322.95 196.916 323.022 196.993 322.882C207.635 303.788 212.899 283.138 208.898 260.789C205.605 242.776 196.897 226.438 184.124 214.306C171.722 202.596 156.004 195.451 139.833 192.029C116.807 187.152 89.9697 189.278 69.3786 202.362C69.2563 202.44 69.117 202.481 68.9749 202.482C68.8328 202.484 68.6929 202.444 68.5695 202.368C68.4462 202.292 68.3436 202.182 68.2724 202.049C68.2012 201.917 68.1638 201.766 68.164 201.613L68.2845 0.892842C68.2852 0.864877 68.2805 0.837058 68.2708 0.811136C68.261 0.785213 68.2464 0.761745 68.2278 0.74221C68.2093 0.722674 68.1872 0.707493 68.1629 0.69762C68.1386 0.687747 68.1128 0.683396 68.0869 0.684841L6.93071 0.91364C6.05178 0.915 5.18174 1.10346 4.37045 1.46821C3.55915 1.83297 2.82255 2.36686 2.20285 3.03928C1.58315 3.7117 1.09253 4.50944 0.759112 5.38679C0.425692 6.26413 0.256022 7.20383 0.259828 8.15204C0.259828 19.7792 0.298389 30.8396 0.312849 42.472C0.356229 70.032 0.399603 94.3108 0.442983 121.897L0.712902 300.012C0.751462 325.711 -0.106498 352.824 9.3889 376.972C16.831 395.926 28.6689 412.499 43.4326 425.504C68.0483 447.198 99.8265 458.638 131.489 458.95C241.867 460.51 268.811 372.11 271.438 361.981C271.447 361.935 271.442 361.887 271.423 361.845C271.404 361.803 271.373 361.769 271.334 361.749C271.295 361.728 271.251 361.723 271.208 361.733C271.166 361.743 271.128 361.768 271.1 361.804C221.633 441.905 136.406 428.4 103.119 402.374Z" fill="url(#paint1_linear_3084_32866)" />
  <defs>
    <linearGradient id="paint0_linear_3084_32866" x1="0.0485188" y1="230.006" x2="282.008" y2="229.588" gradientUnits="userSpaceOnUse">
      <stop stop-color="#007EFF" />
      <stop offset="0.04" stop-color="#0D8AFF" />
      <stop offset="0.17" stop-color="#32AEFF" />
      <stop offset="0.28" stop-color="#49C4FF" />
      <stop offset="0.35" stop-color="#51CCFF" />
      <stop offset="0.48" stop-color="#4CA7FF" />
      <stop offset="0.63" stop-color="#4681FF" />
      <stop offset="0.78" stop-color="#4265FF" />
      <stop offset="0.9" stop-color="#4055FF" />
      <stop offset="1" stop-color="#3F4FFF" />
    </linearGradient>
    <linearGradient id="paint1_linear_3084_32866" x1="0.565232" y1="230.022" x2="271.222" y2="229.628" gradientUnits="userSpaceOnUse">
      <stop stop-color="#3200FF" />
      <stop offset="0.41" stop-color="#0064E9" />
      <stop offset="0.5" stop-color="#0D76ED" />
      <stop offset="0.72" stop-color="#2BA1F7" />
      <stop offset="0.9" stop-color="#3EBCFD" />
      <stop offset="1" stop-color="#45C6FF" />
    </linearGradient>
  </defs>
</svg>
